<svg xmlns="http://www.w3.org/2000/svg" version="1.1" xmlns:xlink="http://www.w3.org/1999/xlink" xmlns:svgjs="http://svgjs.dev/svgjs" width="1500" height="1687" viewBox="0 0 1500 1687"><g transform="matrix(1,0,0,1,0.0016512811048414733,0)"><svg viewBox="0 0 320 360" data-background-color="#ffffff" preserveAspectRatio="xMidYMid meet" height="1687" width="1500" xmlns="http://www.w3.org/2000/svg" xmlns:xlink="http://www.w3.org/1999/xlink"><g id="tight-bounds" transform="matrix(1,0,0,1,0.00010353528136874957,0)"><svg viewBox="0 0 320 360" height="360" width="320"><g><svg></svg></g><g><svg viewBox="0 0 320 360" height="360" width="320"><g><path d="M307.925 179.999l6.575-11.387c11.322-19.607 4.604-44.679-15.003-56.001l-11.387-6.575v-13.151c0-22.639-18.354-40.994-40.994-40.994h-13.151l-6.575-11.387c-11.322-19.607-36.393-26.325-56.001-15.003l-11.39 6.572-11.387-6.576c-19.607-11.318-44.679-4.6-56.001 15.007l-6.575 11.387h-13.151c-22.639 0-40.994 18.354-40.994 40.994v13.151l-11.387 6.575c-19.607 11.322-26.325 36.393-15.003 56.001l6.572 11.387-6.576 11.387c-11.318 19.607-4.6 44.679 15.007 56l11.387 6.576v13.15c0 22.639 18.354 40.994 40.994 40.994h13.151l6.575 11.387c11.322 19.607 36.393 26.325 56.001 15.003l11.387-6.571 11.387 6.575c19.607 11.322 44.679 4.604 56-15.003l6.576-11.387h13.15c22.639 0 40.994-18.354 40.994-40.994v-13.151l11.387-6.575c19.607-11.322 26.325-36.393 15.003-56.001zM297.702 115.716c8.655 4.996 14.842 13.062 17.428 22.713 2.586 9.65 1.261 19.734-3.735 28.384l-5.538 9.596-17.747-30.74v-35.494zM251.155 271.155l-57.791 33.365h-66.731l-57.791-33.365-33.365-57.791v-66.731l33.365-57.791 57.791-33.365h66.731l57.791 33.365 33.365 57.791v66.731zM284.517 220.539v31.351l-27.151 15.676zM247.566 277.366l-15.676 27.151h-31.351zM187.15 308.106l-27.151 15.676-27.151-15.676zM119.459 304.517h-31.352l-15.676-27.151zM62.632 267.566l-27.151-15.676v-31.351zM31.891 207.15l-15.675-27.151 15.675-27.151zM35.481 139.459v-31.352l27.151-15.676zM72.431 82.632l15.676-27.151h31.352zM132.848 51.891l27.151-15.675 27.151 15.675zM200.539 55.481h31.351l15.676 27.151zM257.366 92.431l27.151 15.676v31.352zM288.106 152.848l15.676 27.151-15.676 27.151zM247.112 55.481c9.992 0 19.384 3.889 26.452 10.956 7.063 7.063 10.956 16.46 10.957 26.452v11.079l-30.741-17.747-17.747-30.74zM173.18 28.606c8.655-4.996 18.735-6.322 28.385-3.735 9.65 2.586 17.716 8.777 22.712 17.428l5.538 9.596h-35.494l-30.741-17.747zM95.716 42.295c4.996-8.655 13.062-14.842 22.713-17.428 9.65-2.586 19.734-1.261 28.384 3.736l9.596 5.537-30.74 17.747h-35.494zM35.481 92.885c0-9.992 3.889-19.384 10.956-26.452 7.063-7.063 16.46-10.956 26.452-10.956h11.079l-17.747 30.74-30.74 17.747zM8.606 166.817c-4.996-8.655-6.322-18.735-3.735-28.385 2.586-9.65 8.777-17.716 17.428-22.712l9.596-5.538v35.495l-17.747 30.74zM22.295 244.281c-8.655-4.996-14.842-13.062-17.428-22.712-2.586-9.65-1.261-19.734 3.736-28.385l5.537-9.596 17.747 30.74v35.495zM72.885 304.517c-9.992 0-19.384-3.889-26.452-10.957-7.063-7.063-10.956-16.46-10.956-26.451v-11.08l30.74 17.747 17.747 30.741zM146.817 331.391c-8.655 4.996-18.735 6.322-28.385 3.735-9.65-2.586-17.716-8.777-22.712-17.428l-5.538-9.596h35.495l30.74 17.747zM224.281 317.702c-4.996 8.655-13.062 14.842-22.712 17.428-9.65 2.586-19.734 1.261-28.385-3.735l-9.596-5.538 30.74-17.747h35.495zM284.517 267.112c0 9.992-3.889 19.384-10.957 26.452-7.063 7.063-16.46 10.956-26.451 10.957h-11.08l17.747-30.741 30.741-17.747zM315.13 221.565c-2.586 9.65-8.777 17.716-17.428 22.712l-9.596 5.538v-35.494l17.747-30.741 5.538 9.596c4.996 8.658 6.326 18.739 3.739 28.389z" fill="#bb84e8" fill-rule="nonzero" stroke="none" stroke-width="1" stroke-linecap="butt" stroke-linejoin="miter" stroke-miterlimit="10" stroke-dasharray="" stroke-dashoffset="0" font-family="none" font-weight="none" font-size="none" text-anchor="none" style="mix-blend-mode: normal" data-fill-palette-color="tertiary"></path></g><g transform="matrix(1,0,0,1,64,149.31557614360162)"><svg viewBox="0 0 192 61.36884771279676" height="61.36884771279676" width="192"><g><svg viewBox="0 0 192 61.36884771279676" height="61.36884771279676" width="192"><g><svg viewBox="0 0 192 61.36884771279676" height="61.36884771279676" width="192"><g><svg viewBox="0 0 192 61.36884771279676" height="61.36884771279676" width="192"><g id="textblocktransform"><svg viewBox="0 0 192 61.36884771279676" height="61.36884771279676" width="192" id="textblock"><g><svg viewBox="0 0 192 61.36884771279676" height="61.36884771279676" width="192"><g transform="matrix(1,0,0,1,0,0)"><svg width="192" viewBox="0.81 -40.43 126.48 40.43" height="61.36884771279676" data-palette-color="#bb84e8"><path d="M27.15-11.87L19.73-11.87 20.43-13.62 26.44-13.62 27.15-11.87ZM28.56-8.35L18.36-8.35 19.04-10.11 27.81-10.11 28.56-8.35ZM29.93-4.83L16.99-4.83 17.68-6.59 29.2-6.59 29.93-4.83ZM17.75-38.06L2.71 0 0.81 0 16.8-40.43 18.7-40.43 34.67 0 32.79 0 17.75-38.06ZM4.59 0L17.97-33.89 18.97-31.64 6.47 0 4.59 0ZM8.37 0L19.92-29.25 20.85-26.83 10.28 0 8.37 0ZM12.16 0L21.78-24.41 22.71-21.95 14.04 0 12.16 0ZM30.03-40.43L46.02 0 44.12 0 28.15-40.43 30.03-40.43ZM24.37-40.43L26.25-40.43 42.24 0 40.36 0 24.37-40.43ZM20.58-40.43L22.46-40.43 38.45 0 36.55 0 20.58-40.43ZM76.63-17.77L76.63-17.77 76.58-17.8Q79.34-20.48 79.34-24.34L79.34-24.34Q79.34-28 76.62-30.7 73.9-33.4 70.19-33.4L70.19-33.4 50.85-33.4 50.85 0 49.09 0 49.09-35.16 70.19-35.16Q73.07-35.16 75.6-33.68 78.12-32.2 79.61-29.7 81.1-27.2 81.1-24.34L81.1-24.34Q81.1-20.43 79-17.63L79-17.63Q81.1-14.72 81.1-11.23L81.1-11.23Q81.1-7.89 79.59-5.33 78.07-2.78 75.62-1.49 73.17-0.2 70.19-0.2L70.19-0.2 59.08-0.2 59.08-1.95 70.19-1.95Q73.95-1.95 76.65-4.63 79.34-7.3 79.34-11.23L79.34-11.23Q79.34-13.04 78.56-14.79 77.78-16.55 76.61-17.75L76.61-17.75Q76.61-17.77 76.63-17.77ZM70.19-8.98L70.19-8.98 59.08-8.98 59.08-7.23 70.19-7.23Q71.8-7.23 72.93-8.31 74.07-9.4 74.07-11.23L74.07-11.23Q74.07-12.82 72.9-14.03 71.73-15.23 70.19-15.23L70.19-15.23 59.06-15.23 59.06-13.48 70.19-13.48Q71.02-13.48 71.66-12.79 72.31-12.11 72.31-11.23L72.31-11.23Q72.31-10.16 71.7-9.57 71.09-8.98 70.19-8.98ZM70.19-5.47L70.19-5.47 59.08-5.47 59.08-3.71 70.19-3.71Q73.22-3.71 75.4-5.87 77.59-8.03 77.59-11.23L77.59-11.23Q77.59-13.26 76.5-15.05 75.41-16.85 73.63-17.82L73.63-17.82Q75.41-18.75 76.5-20.47 77.59-22.19 77.59-24.34L77.59-24.34Q77.59-27.27 75.38-29.46 73.17-31.64 70.19-31.64L70.19-31.64 52.61-31.64 52.61 0 54.37 0 54.37-29.88 70.19-29.88Q72.43-29.88 74.13-28.21 75.83-26.54 75.83-24.34L75.83-24.34Q75.83-21.9 74.17-20.32 72.51-18.75 70.19-18.75L70.19-18.75 64.82-18.75 59.08-18.75 59.08-16.99 64.82-16.99 70.19-16.99Q72.43-16.99 74.13-15.26 75.83-13.53 75.83-11.23L75.83-11.23Q75.83-8.69 74.17-7.08 72.51-5.47 70.19-5.47ZM70.19-22.27L70.19-22.27 59.08-22.27 59.08-20.51 70.19-20.51Q71.82-20.51 72.95-21.55 74.07-22.58 74.07-24.34L74.07-24.34Q74.07-25.83 72.9-26.98 71.73-28.13 70.19-28.13L70.19-28.13 56.13-28.13 56.13 0 57.88 0 57.88-26.37 70.19-26.37Q71.02-26.37 71.66-25.74 72.31-25.12 72.31-24.34L72.31-24.34Q72.31-23.34 71.7-22.8 71.09-22.27 70.19-22.27ZM95.67 0L95.67-35.16 97.43-35.16 97.43 0 95.67 0ZM92.16 0L92.16-35.16 93.92-35.16 93.92 0 92.16 0ZM88.64 0L88.64-35.16 90.4-35.16 90.4 0 88.64 0ZM85.13 0L85.13-35.16 86.88-35.16 86.88 0 85.13 0ZM102.02 0L102.02-35.16 103.78-35.16 103.78 0 102.02 0ZM112.57 0L112.57-35.16 114.32-35.16 114.32-8.79 127.29-8.79 127.29-7.03 114.32-7.03 114.32-5.27 127.29-5.27 127.29-3.52 114.32-3.52 114.32-1.76 127.29-1.76 127.29 0 112.57 0ZM109.05 0L109.05-35.16 110.81-35.16 110.81 0 109.05 0ZM105.53 0L105.53-35.16 107.29-35.16 107.29 0 105.53 0Z" opacity="1" transform="matrix(1,0,0,1,0,0)" fill="#bb84e8" class="wordmark-text-0" data-fill-palette-color="primary" id="text-0"></path></svg></g></svg></g></svg></g></svg></g><g></g></svg></g></svg></g></svg></g></svg></g><defs></defs></svg><rect width="320" height="360" fill="none" stroke="none" visibility="hidden"></rect></g></svg></g></svg>